<mxfile host="app.diagrams.net" modified="2022-07-17T17:45:22.939Z" agent="5.0 (X11)" etag="W_t2sBQNHHGyrF02sCWN" version="17.1.3" type="github">
  <diagram id="3228e29e-7158-1315-38df-8450db1d8a1d" name="Page-1">
    <mxGraphModel dx="1262" dy="742" grid="1" gridSize="10" guides="1" tooltips="1" connect="1" arrows="1" fold="1" page="1" pageScale="1" pageWidth="1169" pageHeight="827" background="none" math="0" shadow="0">
      <root>
        <mxCell id="0" />
        <mxCell id="1" parent="0" />
        <mxCell id="tSPkr6S04YsQxG5j5Nl7-21537" value="" style="rounded=1;whiteSpace=wrap;html=1;fontFamily=IranSans;fontSize=25;fillColor=#E85642;fontColor=#333333;strokeColor=#666666;opacity=60;" vertex="1" parent="1">
          <mxGeometry x="1120" y="660" width="330" height="150" as="geometry" />
        </mxCell>
        <mxCell id="tSPkr6S04YsQxG5j5Nl7-21538" value="" style="rounded=1;whiteSpace=wrap;html=1;fontFamily=IranSans;fontSize=25;fillColor=#F08705;fontColor=#333333;strokeColor=#666666;opacity=60;" vertex="1" parent="1">
          <mxGeometry x="920" y="660" width="190" height="150" as="geometry" />
        </mxCell>
        <mxCell id="tSPkr6S04YsQxG5j5Nl7-21539" value="&lt;font style=&quot;font-size: 25px&quot;&gt;Invoices&lt;/font&gt;" style="ellipse;fillColor=#F08705;opacity=60;strokeColor=none;html=1;fontColor=#FFFFFF;" vertex="1" parent="1">
          <mxGeometry x="110" y="163.5" width="250" height="250" as="geometry" />
        </mxCell>
        <mxCell id="tSPkr6S04YsQxG5j5Nl7-21540" value="&lt;font style=&quot;font-size: 25px&quot;&gt;Carts&lt;/font&gt;" style="ellipse;fillColor=#12AAB5;opacity=60;strokeColor=none;html=1;fontColor=#FFFFFF;" vertex="1" parent="1">
          <mxGeometry x="20" y="18" width="250" height="250" as="geometry" />
        </mxCell>
        <mxCell id="tSPkr6S04YsQxG5j5Nl7-21541" value="&lt;font style=&quot;font-size: 25px&quot;&gt;Orders&lt;/font&gt;" style="ellipse;fillColor=#e85642;opacity=60;strokeColor=none;html=1;fontColor=#FFFFFF;" vertex="1" parent="1">
          <mxGeometry x="199.5" y="18" width="250" height="250" as="geometry" />
        </mxCell>
        <mxCell id="tSPkr6S04YsQxG5j5Nl7-21542" value="" style="rounded=1;whiteSpace=wrap;html=1;fontFamily=IranSans;fontSize=25;fillColor=#E85642;opacity=60;" vertex="1" parent="1">
          <mxGeometry x="480" y="390" width="970" height="150" as="geometry" />
        </mxCell>
        <mxCell id="tSPkr6S04YsQxG5j5Nl7-21543" style="edgeStyle=orthogonalEdgeStyle;rounded=0;orthogonalLoop=1;jettySize=auto;html=1;exitX=0.5;exitY=0.5;exitDx=0;exitDy=0;exitPerimeter=0;entryX=0;entryY=0.5;entryDx=0;entryDy=0;fontFamily=IranSans;fontSize=25;" edge="1" parent="1" source="tSPkr6S04YsQxG5j5Nl7-21545" target="tSPkr6S04YsQxG5j5Nl7-21548">
          <mxGeometry relative="1" as="geometry" />
        </mxCell>
        <mxCell id="tSPkr6S04YsQxG5j5Nl7-21544" value="Add product to cart" style="edgeLabel;html=1;align=center;verticalAlign=middle;resizable=0;points=[];fontSize=11;fontFamily=IranSans;" vertex="1" connectable="0" parent="tSPkr6S04YsQxG5j5Nl7-21543">
          <mxGeometry x="-0.4146" relative="1" as="geometry">
            <mxPoint x="28" y="-15" as="offset" />
          </mxGeometry>
        </mxCell>
        <mxCell id="tSPkr6S04YsQxG5j5Nl7-21545" value="Client" style="shape=umlActor;verticalLabelPosition=bottom;verticalAlign=top;html=1;outlineConnect=0;fontFamily=IranSans;fontSize=11;" vertex="1" parent="1">
          <mxGeometry x="400" y="435" width="30" height="60" as="geometry" />
        </mxCell>
        <mxCell id="tSPkr6S04YsQxG5j5Nl7-21546" value="Use wallet credit" style="edgeStyle=orthogonalEdgeStyle;rounded=0;orthogonalLoop=1;jettySize=auto;html=1;exitX=1;exitY=0.5;exitDx=0;exitDy=0;entryX=0;entryY=0.5;entryDx=0;entryDy=0;fontFamily=IranSans;fontSize=11;" edge="1" parent="1" source="tSPkr6S04YsQxG5j5Nl7-21548" target="tSPkr6S04YsQxG5j5Nl7-21551">
          <mxGeometry y="-15" relative="1" as="geometry">
            <mxPoint as="offset" />
          </mxGeometry>
        </mxCell>
        <mxCell id="tSPkr6S04YsQxG5j5Nl7-21547" value="Apply discount" style="edgeLabel;html=1;align=center;verticalAlign=middle;resizable=0;points=[];fontSize=11;fontFamily=IranSans;" vertex="1" connectable="0" parent="tSPkr6S04YsQxG5j5Nl7-21546">
          <mxGeometry x="0.1024" y="-3" relative="1" as="geometry">
            <mxPoint x="-5" y="-18" as="offset" />
          </mxGeometry>
        </mxCell>
        <mxCell id="tSPkr6S04YsQxG5j5Nl7-21548" value="Unpaid Order" style="rounded=0;whiteSpace=wrap;html=1;fontFamily=IranSans;fontSize=11;" vertex="1" parent="1">
          <mxGeometry x="540" y="435" width="90" height="60" as="geometry" />
        </mxCell>
        <mxCell id="tSPkr6S04YsQxG5j5Nl7-21549" style="edgeStyle=orthogonalEdgeStyle;rounded=0;orthogonalLoop=1;jettySize=auto;html=1;exitX=1;exitY=0.5;exitDx=0;exitDy=0;entryX=0;entryY=0.5;entryDx=0;entryDy=0;fontFamily=IranSans;fontSize=11;" edge="1" parent="1" source="tSPkr6S04YsQxG5j5Nl7-21551" target="tSPkr6S04YsQxG5j5Nl7-21554">
          <mxGeometry relative="1" as="geometry" />
        </mxCell>
        <mxCell id="tSPkr6S04YsQxG5j5Nl7-21550" value="Select Address" style="edgeLabel;html=1;align=center;verticalAlign=middle;resizable=0;points=[];fontSize=11;fontFamily=IranSans;" vertex="1" connectable="0" parent="tSPkr6S04YsQxG5j5Nl7-21549">
          <mxGeometry x="0.2286" relative="1" as="geometry">
            <mxPoint x="-11" y="-15" as="offset" />
          </mxGeometry>
        </mxCell>
        <mxCell id="tSPkr6S04YsQxG5j5Nl7-21551" value="Unpaid Order" style="rounded=0;whiteSpace=wrap;html=1;fontFamily=IranSans;fontSize=11;" vertex="1" parent="1">
          <mxGeometry x="740" y="435" width="120" height="60" as="geometry" />
        </mxCell>
        <mxCell id="tSPkr6S04YsQxG5j5Nl7-21552" style="edgeStyle=orthogonalEdgeStyle;rounded=0;orthogonalLoop=1;jettySize=auto;html=1;exitX=1;exitY=0.5;exitDx=0;exitDy=0;entryX=0;entryY=0.5;entryDx=0;entryDy=0;fontFamily=IranSans;fontSize=11;" edge="1" parent="1" source="tSPkr6S04YsQxG5j5Nl7-21554" target="tSPkr6S04YsQxG5j5Nl7-21556">
          <mxGeometry relative="1" as="geometry" />
        </mxCell>
        <mxCell id="tSPkr6S04YsQxG5j5Nl7-21553" value="Pay" style="edgeLabel;html=1;align=center;verticalAlign=middle;resizable=0;points=[];fontSize=11;fontFamily=IranSans;" vertex="1" connectable="0" parent="tSPkr6S04YsQxG5j5Nl7-21552">
          <mxGeometry x="-0.2737" relative="1" as="geometry">
            <mxPoint x="2" y="-15" as="offset" />
          </mxGeometry>
        </mxCell>
        <mxCell id="tSPkr6S04YsQxG5j5Nl7-21554" value="Unpaid Order" style="rounded=0;whiteSpace=wrap;html=1;fontFamily=IranSans;fontSize=11;" vertex="1" parent="1">
          <mxGeometry x="960" y="435" width="120" height="60" as="geometry" />
        </mxCell>
        <mxCell id="tSPkr6S04YsQxG5j5Nl7-21555" style="edgeStyle=orthogonalEdgeStyle;rounded=0;orthogonalLoop=1;jettySize=auto;html=1;exitX=1;exitY=0.5;exitDx=0;exitDy=0;entryX=0;entryY=0.5;entryDx=0;entryDy=0;fontFamily=IranSans;fontSize=11;" edge="1" parent="1" source="tSPkr6S04YsQxG5j5Nl7-21556" target="tSPkr6S04YsQxG5j5Nl7-21557">
          <mxGeometry relative="1" as="geometry" />
        </mxCell>
        <mxCell id="tSPkr6S04YsQxG5j5Nl7-21556" value="Pending Order" style="rounded=0;whiteSpace=wrap;html=1;fontFamily=IranSans;fontSize=11;" vertex="1" parent="1">
          <mxGeometry x="1130" y="435" width="120" height="60" as="geometry" />
        </mxCell>
        <mxCell id="tSPkr6S04YsQxG5j5Nl7-21557" value="Active Order" style="rounded=0;whiteSpace=wrap;html=1;fontFamily=IranSans;fontSize=11;" vertex="1" parent="1">
          <mxGeometry x="1300" y="435" width="120" height="60" as="geometry" />
        </mxCell>
        <mxCell id="tSPkr6S04YsQxG5j5Nl7-21558" style="edgeStyle=orthogonalEdgeStyle;rounded=0;orthogonalLoop=1;jettySize=auto;html=1;exitX=0.5;exitY=0;exitDx=0;exitDy=0;exitPerimeter=0;entryX=0;entryY=0.5;entryDx=0;entryDy=0;fontFamily=IranSans;fontSize=11;" edge="1" parent="1" source="tSPkr6S04YsQxG5j5Nl7-21559" target="tSPkr6S04YsQxG5j5Nl7-21557">
          <mxGeometry relative="1" as="geometry" />
        </mxCell>
        <mxCell id="tSPkr6S04YsQxG5j5Nl7-21582" value="Confrim" style="edgeLabel;html=1;align=center;verticalAlign=middle;resizable=0;points=[];fontSize=15;rotation=-90;" vertex="1" connectable="0" parent="tSPkr6S04YsQxG5j5Nl7-21558">
          <mxGeometry x="-0.4682" y="-1" relative="1" as="geometry">
            <mxPoint x="9" y="-11" as="offset" />
          </mxGeometry>
        </mxCell>
        <mxCell id="tSPkr6S04YsQxG5j5Nl7-21559" value="Staff" style="shape=umlActor;verticalLabelPosition=bottom;verticalAlign=top;html=1;outlineConnect=0;fontFamily=IranSans;fontSize=11;" vertex="1" parent="1">
          <mxGeometry x="1260" y="550" width="30" height="60" as="geometry" />
        </mxCell>
        <mxCell id="tSPkr6S04YsQxG5j5Nl7-21560" value="" style="rounded=1;whiteSpace=wrap;html=1;fontFamily=IranSans;fontSize=25;fillColor=#12AAB5;fontColor=#333333;strokeColor=#666666;opacity=60;" vertex="1" parent="1">
          <mxGeometry x="480" y="660" width="430" height="150" as="geometry" />
        </mxCell>
        <mxCell id="tSPkr6S04YsQxG5j5Nl7-21561" style="edgeStyle=orthogonalEdgeStyle;rounded=0;orthogonalLoop=1;jettySize=auto;html=1;exitX=0.5;exitY=0.5;exitDx=0;exitDy=0;exitPerimeter=0;entryX=0;entryY=0.5;entryDx=0;entryDy=0;fontFamily=IranSans;fontSize=25;" edge="1" parent="1" source="tSPkr6S04YsQxG5j5Nl7-21563" target="tSPkr6S04YsQxG5j5Nl7-21566">
          <mxGeometry relative="1" as="geometry" />
        </mxCell>
        <mxCell id="tSPkr6S04YsQxG5j5Nl7-21562" value="Add product to cart" style="edgeLabel;html=1;align=center;verticalAlign=middle;resizable=0;points=[];fontSize=11;fontFamily=IranSans;" vertex="1" connectable="0" parent="tSPkr6S04YsQxG5j5Nl7-21561">
          <mxGeometry x="-0.4146" relative="1" as="geometry">
            <mxPoint x="28" y="-15" as="offset" />
          </mxGeometry>
        </mxCell>
        <mxCell id="tSPkr6S04YsQxG5j5Nl7-21563" value="Client" style="shape=umlActor;verticalLabelPosition=bottom;verticalAlign=top;html=1;outlineConnect=0;fontFamily=IranSans;fontSize=11;" vertex="1" parent="1">
          <mxGeometry x="400" y="705" width="30" height="60" as="geometry" />
        </mxCell>
        <mxCell id="tSPkr6S04YsQxG5j5Nl7-21564" value="" style="edgeStyle=orthogonalEdgeStyle;rounded=0;orthogonalLoop=1;jettySize=auto;html=1;exitX=1;exitY=0.5;exitDx=0;exitDy=0;entryX=0;entryY=0.5;entryDx=0;entryDy=0;fontFamily=IranSans;fontSize=11;" edge="1" parent="1" source="tSPkr6S04YsQxG5j5Nl7-21566" target="tSPkr6S04YsQxG5j5Nl7-21569">
          <mxGeometry y="-15" relative="1" as="geometry">
            <mxPoint as="offset" />
          </mxGeometry>
        </mxCell>
        <mxCell id="tSPkr6S04YsQxG5j5Nl7-21565" value="Apply discount" style="edgeLabel;html=1;align=center;verticalAlign=middle;resizable=0;points=[];fontSize=11;fontFamily=IranSans;" vertex="1" connectable="0" parent="tSPkr6S04YsQxG5j5Nl7-21564">
          <mxGeometry x="0.1024" y="-3" relative="1" as="geometry">
            <mxPoint x="-5" y="-18" as="offset" />
          </mxGeometry>
        </mxCell>
        <mxCell id="tSPkr6S04YsQxG5j5Nl7-21566" value="Cart Item" style="rounded=0;whiteSpace=wrap;html=1;fontFamily=IranSans;fontSize=11;" vertex="1" parent="1">
          <mxGeometry x="540" y="705" width="90" height="60" as="geometry" />
        </mxCell>
        <mxCell id="tSPkr6S04YsQxG5j5Nl7-21567" style="edgeStyle=orthogonalEdgeStyle;rounded=0;orthogonalLoop=1;jettySize=auto;html=1;exitX=1;exitY=0.5;exitDx=0;exitDy=0;entryX=0;entryY=0.5;entryDx=0;entryDy=0;fontFamily=IranSans;fontSize=11;" edge="1" parent="1" source="tSPkr6S04YsQxG5j5Nl7-21569" target="tSPkr6S04YsQxG5j5Nl7-21572">
          <mxGeometry relative="1" as="geometry" />
        </mxCell>
        <mxCell id="tSPkr6S04YsQxG5j5Nl7-21568" value="Select Address" style="edgeLabel;html=1;align=center;verticalAlign=middle;resizable=0;points=[];fontSize=11;fontFamily=IranSans;" vertex="1" connectable="0" parent="tSPkr6S04YsQxG5j5Nl7-21567">
          <mxGeometry x="0.2286" relative="1" as="geometry">
            <mxPoint x="-11" y="-15" as="offset" />
          </mxGeometry>
        </mxCell>
        <mxCell id="tSPkr6S04YsQxG5j5Nl7-21569" value="Cart item" style="rounded=0;whiteSpace=wrap;html=1;fontFamily=IranSans;fontSize=11;" vertex="1" parent="1">
          <mxGeometry x="740" y="705" width="120" height="60" as="geometry" />
        </mxCell>
        <mxCell id="tSPkr6S04YsQxG5j5Nl7-21570" style="edgeStyle=orthogonalEdgeStyle;rounded=0;orthogonalLoop=1;jettySize=auto;html=1;exitX=1;exitY=0.5;exitDx=0;exitDy=0;entryX=0;entryY=0.5;entryDx=0;entryDy=0;fontFamily=IranSans;fontSize=11;" edge="1" parent="1" source="tSPkr6S04YsQxG5j5Nl7-21572" target="tSPkr6S04YsQxG5j5Nl7-21574">
          <mxGeometry relative="1" as="geometry" />
        </mxCell>
        <mxCell id="tSPkr6S04YsQxG5j5Nl7-21571" value="Pay" style="edgeLabel;html=1;align=center;verticalAlign=middle;resizable=0;points=[];fontSize=11;fontFamily=IranSans;" vertex="1" connectable="0" parent="tSPkr6S04YsQxG5j5Nl7-21570">
          <mxGeometry x="-0.2737" relative="1" as="geometry">
            <mxPoint x="2" y="-15" as="offset" />
          </mxGeometry>
        </mxCell>
        <mxCell id="tSPkr6S04YsQxG5j5Nl7-21572" value="Unpaid Invoice" style="rounded=0;whiteSpace=wrap;html=1;fontFamily=IranSans;fontSize=11;" vertex="1" parent="1">
          <mxGeometry x="960" y="705" width="120" height="60" as="geometry" />
        </mxCell>
        <mxCell id="tSPkr6S04YsQxG5j5Nl7-21573" style="edgeStyle=orthogonalEdgeStyle;rounded=0;orthogonalLoop=1;jettySize=auto;html=1;exitX=1;exitY=0.5;exitDx=0;exitDy=0;entryX=0;entryY=0.5;entryDx=0;entryDy=0;fontFamily=IranSans;fontSize=11;" edge="1" parent="1" source="tSPkr6S04YsQxG5j5Nl7-21574" target="tSPkr6S04YsQxG5j5Nl7-21575">
          <mxGeometry relative="1" as="geometry" />
        </mxCell>
        <mxCell id="tSPkr6S04YsQxG5j5Nl7-21574" value="Pending Order" style="rounded=0;whiteSpace=wrap;html=1;fontFamily=IranSans;fontSize=11;" vertex="1" parent="1">
          <mxGeometry x="1130" y="705" width="120" height="60" as="geometry" />
        </mxCell>
        <mxCell id="tSPkr6S04YsQxG5j5Nl7-21575" value="Active Order" style="rounded=0;whiteSpace=wrap;html=1;fontFamily=IranSans;fontSize=11;" vertex="1" parent="1">
          <mxGeometry x="1300" y="705" width="120" height="60" as="geometry" />
        </mxCell>
        <mxCell id="tSPkr6S04YsQxG5j5Nl7-21576" style="edgeStyle=orthogonalEdgeStyle;rounded=0;orthogonalLoop=1;jettySize=auto;html=1;exitX=0.5;exitY=0;exitDx=0;exitDy=0;exitPerimeter=0;entryX=0;entryY=0.5;entryDx=0;entryDy=0;fontFamily=IranSans;fontSize=11;" edge="1" parent="1" source="tSPkr6S04YsQxG5j5Nl7-21577" target="tSPkr6S04YsQxG5j5Nl7-21575">
          <mxGeometry relative="1" as="geometry" />
        </mxCell>
        <mxCell id="tSPkr6S04YsQxG5j5Nl7-21583" value="Confrim" style="edgeLabel;html=1;align=center;verticalAlign=middle;resizable=0;points=[];fontSize=15;rotation=-90;" vertex="1" connectable="0" parent="tSPkr6S04YsQxG5j5Nl7-21576">
          <mxGeometry x="-0.4292" y="1" relative="1" as="geometry">
            <mxPoint x="11" y="-16" as="offset" />
          </mxGeometry>
        </mxCell>
        <mxCell id="tSPkr6S04YsQxG5j5Nl7-21577" value="Staff" style="shape=umlActor;verticalLabelPosition=bottom;verticalAlign=top;html=1;outlineConnect=0;fontFamily=IranSans;fontSize=11;" vertex="1" parent="1">
          <mxGeometry x="1260" y="830" width="30" height="60" as="geometry" />
        </mxCell>
        <mxCell id="tSPkr6S04YsQxG5j5Nl7-21578" value="Cart System" style="text;html=1;align=center;verticalAlign=middle;whiteSpace=wrap;rounded=0;fontFamily=IranSans;fontSize=11;fontColor=#FFFFFF;" vertex="1" parent="1">
          <mxGeometry x="657.5" y="660" width="75" height="30" as="geometry" />
        </mxCell>
        <mxCell id="tSPkr6S04YsQxG5j5Nl7-21579" value="Banking system" style="text;html=1;align=center;verticalAlign=middle;whiteSpace=wrap;rounded=0;fontFamily=IranSans;fontSize=11;fontColor=#FFFFFF;" vertex="1" parent="1">
          <mxGeometry x="961.25" y="660" width="117.5" height="30" as="geometry" />
        </mxCell>
        <mxCell id="tSPkr6S04YsQxG5j5Nl7-21580" value="Ordering system" style="text;html=1;align=center;verticalAlign=middle;whiteSpace=wrap;rounded=0;fontFamily=IranSans;fontSize=11;fontColor=#FFFFFF;" vertex="1" parent="1">
          <mxGeometry x="1226.25" y="660" width="117.5" height="30" as="geometry" />
        </mxCell>
        <mxCell id="tSPkr6S04YsQxG5j5Nl7-21581" value="Ordering system" style="text;html=1;align=center;verticalAlign=middle;whiteSpace=wrap;rounded=0;fontFamily=IranSans;fontSize=11;fontColor=#FFFFFF;" vertex="1" parent="1">
          <mxGeometry x="906.25" y="384" width="117.5" height="30" as="geometry" />
        </mxCell>
      </root>
    </mxGraphModel>
  </diagram>
</mxfile>
